<svg viewBox="0 0 31 35" fill="none" xmlns="http://www.w3.org/2000/svg">
<path d="M19.8981 6.64641C20.832 5.76332 21.5212 4.79608 21.9659 3.74432C22.3957 2.69255 22.6107 1.73932 22.6107 0.883535C22.6107 0.827841 22.6069 0.756934 22.5995 0.67317C22.5917 0.589405 22.5884 0.519708 22.5884 0.462804C22.5736 0.420731 22.5551 0.343586 22.5329 0.230988C22.5107 0.119218 22.4922 0.0420731 22.4773 0C19.8685 0.574957 18.016 1.61272 16.9192 3.11322C15.8075 4.62741 15.2293 6.42942 15.1849 8.51888C16.1776 8.43435 16.9483 8.31596 17.4972 8.16167C18.2977 7.90854 19.0977 7.40404 19.8981 6.64641Z" fill="white"/>
<path d="M27.4573 22.906C26.4345 21.5184 25.9231 19.9548 25.9231 18.2152C25.9231 16.6308 26.4045 15.1798 27.3683 13.8612C27.8871 13.1464 28.732 12.319 29.903 11.379C29.1322 10.4819 28.3614 9.78113 27.5907 9.27548C26.1973 8.36509 24.6187 7.9082 22.8552 7.9082C21.8028 7.9082 20.5207 8.1474 19.0088 8.62383C17.5561 9.10102 16.4963 9.33863 15.8297 9.33863C15.3258 9.33863 14.303 9.12826 12.7614 8.70759C11.2051 8.28686 9.89371 8.0765 8.82642 8.0765C6.27694 8.0765 4.17216 9.08619 2.51242 11.106C0.837472 13.1534 0 15.7754 0 18.9724C0 22.3657 1.08943 25.8922 3.26841 29.5528C5.4766 33.1845 7.70733 35.0001 9.96039 35.0001C10.7163 35.0001 11.6942 34.7617 12.8948 34.2853C14.0955 33.8225 15.1474 33.5912 16.0516 33.5912C17.0151 33.5912 18.1338 33.8156 19.4089 34.2639C20.7574 34.7127 21.795 34.9367 22.5213 34.9367C24.4181 34.9367 26.3229 33.5627 28.235 30.8145C29.4801 29.0619 30.3917 27.3086 30.9698 25.5561C29.6507 25.1779 28.48 24.2943 27.4573 22.906Z" fill="white"/>
</svg>
