<svg viewBox="0 0 29 33" fill="none" xmlns="http://www.w3.org/2000/svg">
<path d="M27.1021 13.693L21.6461 10.542L14.1709 16.1273L21.6459 21.7125L27.1206 18.5507C27.9742 18.0321 28.4836 17.1259 28.4836 16.1274C28.4836 15.1289 27.9741 14.2227 27.1021 13.693Z" fill="#FF9100"/>
<path d="M16.0641 16.1271C16.0559 16.1376 9.45483 24.6248 9.44947 24.6316L0.850452 31.4037C0.321219 30.8745 0 30.1565 0 29.3626V2.84473C0 2.05104 0.321219 1.33282 0.850452 0.803711L9.44947 7.62258C9.45483 7.62944 16.0559 16.1166 16.0641 16.1271Z" fill="#25D9F8"/>
<path d="M16.0608 16.127L14.1709 18.5649V13.689L16.0608 16.127Z" fill="#00C0F1"/>
<path d="M21.6578 10.5329L16.0636 16.1271L0.849976 0.803743C1.0389 0.63359 1.22795 0.501297 1.43584 0.369004C2.34293 -0.141204 3.42023 -0.122368 4.30854 0.425764L14.1737 6.22402L21.6578 10.5329Z" fill="#7FE881"/>
<path d="M21.6549 10.533L16.0608 16.1272L14.1709 14.2373V6.22412L21.6549 10.533Z" fill="#5BC980"/>
<path d="M21.6578 21.721L14.1737 26.03L4.28965 31.8005C3.83607 32.065 3.3447 32.2162 2.83436 32.2162C2.36189 32.2162 1.88942 32.0839 1.43584 31.8382C1.22795 31.7059 1.0389 31.5737 0.849976 31.4036L16.0636 16.127L21.6578 21.721Z" fill="#FF637B"/>
<path d="M21.6549 21.721L14.1709 26.03V18.0168L16.0608 16.127L21.6549 21.721Z" fill="#E63950"/>
</svg>
