<svg viewBox="0 0 115 26" fill="none" xmlns="http://www.w3.org/2000/svg">
<path fill-rule="evenodd" clip-rule="evenodd" d="M53.3176 20.936C52.9589 20.936 52.8417 20.8375 52.8098 20.5082L52.5754 17.9921V0.682065C52.5754 0.34931 52.6997 0.230469 53.0477 0.230469H54.6811C55.0291 0.230469 55.1534 0.34931 55.1534 0.682065V18.4471L55.3558 20.498V20.5048C55.3842 20.6168 55.3806 20.7696 55.3132 20.8341C55.2421 20.902 55.0717 20.936 54.9474 20.936H53.3176ZM70.9959 19.3397C72.5425 20.8433 74.6451 21.6714 76.9188 21.6714C79.2138 21.6714 81.3307 20.8433 82.8737 19.3397C84.4311 17.8565 85.2899 15.8201 85.2899 13.6038C85.2899 11.418 84.4311 9.37817 82.8737 7.86443C81.3307 6.36086 79.2138 5.53271 76.9188 5.53271C74.6451 5.53271 72.5425 6.36086 70.9959 7.86443C70.2047 8.61451 69.5918 9.49357 69.1748 10.4711C68.7579 11.4485 68.5476 12.5007 68.5476 13.6004C68.5476 15.8303 69.4172 17.8667 70.9959 19.3397ZM72.7706 9.74134C73.8362 8.75706 75.308 8.21741 76.9188 8.21741C78.5403 8.21741 80.0513 8.77403 81.0634 9.74134C82.104 10.6679 82.6991 12.073 82.6991 13.6004C82.6991 14.398 82.553 15.1107 82.2572 15.7692C81.9864 16.414 81.5872 16.991 81.0634 17.4899C80.5146 17.9787 79.898 18.3486 79.2281 18.593C78.551 18.851 77.7741 18.9833 76.9188 18.9833C76.0991 18.9833 75.3222 18.851 74.6095 18.593C73.9787 18.352 73.3622 17.9821 72.7742 17.4933L72.7706 17.4899C72.2503 16.9944 71.8476 16.4174 71.5768 15.7692C71.3024 15.0836 71.1705 14.3742 71.1705 13.6004C71.1705 12.0832 71.7514 10.6781 72.7706 9.74134ZM11.2045 9.32186L13.8501 20.9357H17.9824L21.3482 6.36235C21.3767 6.22644 21.3517 6.10072 21.3303 6.04975C21.2804 6.00898 21.1485 5.95801 20.9738 5.95801H19.298C18.8238 5.95801 18.7133 6.22644 18.6883 6.38953V6.39293L16.2959 17.2218H15.3725L12.9124 6.39293C12.8553 6.09392 12.702 5.98859 12.3348 5.98859H9.32197C8.96899 5.98859 8.83351 6.08713 8.74437 6.39973L6.31632 17.2218H5.42496L2.96482 6.39293V6.38953C2.94699 6.26041 2.85072 5.95801 2.39078 5.95801H0.715033C0.479715 5.95801 0.379885 6.02936 0.347796 6.05994C0.326404 6.08033 0.305009 6.18226 0.340663 6.35895L3.70643 20.9357H7.86728L10.4807 9.32186H11.2045ZM106.732 25.9282C106.476 25.9282 106.397 25.8737 106.376 25.8397C106.329 25.775 106.326 25.6149 106.354 25.5332V25.5297L107.591 20.9663H105.666L101.332 6.3837V6.3803C101.303 6.30197 101.278 6.14872 101.346 6.05336C101.382 6.01931 101.485 5.95801 101.709 5.95801H103.517C103.838 5.95801 104.005 6.08742 104.094 6.40414L107.427 18.2078H108.543L111.98 6.36667V6.36327C112.037 6.06358 112.186 5.95801 112.557 5.95801H114.233C114.418 5.95801 114.55 6.0159 114.596 6.05677C114.664 6.15212 114.639 6.30537 114.611 6.3837V6.38711L108.985 25.5161V25.5195C108.928 25.8192 108.779 25.9248 108.408 25.9248H106.732V25.9282ZM89.3842 20.5486C89.3842 20.8552 89.5124 20.9709 89.8578 20.9709V20.9744H91.4991C91.8445 20.9744 91.9727 20.8586 91.9727 20.552V8.59413H97.9507C98.2961 8.59413 98.4243 8.47833 98.4243 8.1718V6.41098C98.4243 6.07721 98.2997 5.95801 97.9507 5.95801H89.8578C89.5088 5.95801 89.3842 6.07721 89.3842 6.41098V20.5486ZM60.5115 20.542C60.5433 20.8723 60.6602 20.9711 61.0178 20.9711V20.9745H62.6433C62.7672 20.9745 62.9372 20.9404 63.0081 20.8723C63.0753 20.8076 63.0789 20.6544 63.0505 20.542V20.5352L62.8487 18.4785V8.5968H65.9686C66.3121 8.5968 66.4396 8.48102 66.4396 8.17456V6.41411C66.4396 6.0804 66.3156 5.96122 65.9686 5.96122H62.8487V3.09069C62.8487 2.78423 62.7212 2.66846 62.3777 2.66846H60.7487C60.4052 2.66846 60.2777 2.78423 60.2777 3.09069V18.0188L60.5115 20.542ZM32.3958 21.6714C30.1277 21.6714 28.0302 20.8433 26.4873 19.3397C24.9337 17.8871 24.077 15.8506 24.077 13.6004C24.077 12.4939 24.2832 11.4418 24.6884 10.4711C25.0973 9.49018 25.7016 8.61112 26.4873 7.86443C28.0302 6.36086 30.1277 5.53271 32.3958 5.53271C33.6187 5.53271 34.7848 5.74654 35.8655 6.16401C36.8645 6.56451 37.7639 7.15846 38.5353 7.92891C40.0853 9.5343 40.8923 11.7642 40.8141 14.2147L26.6686 14.3097L26.7539 14.7645C27.0277 16.0373 27.6782 17.0725 28.6914 17.8463C29.7082 18.5896 30.9844 18.9833 32.3887 18.9833C33.9102 18.9833 35.1971 18.593 36.2174 17.826C37.0813 17.1743 37.5008 16.4276 37.6608 16.0848H40.5404C40.0356 17.5986 39.0473 18.9392 37.6715 19.971C36.1712 21.0639 34.2942 21.6714 32.3958 21.6714ZM32.4989 8.21741C31.2688 8.21741 30.1099 8.52966 29.1429 9.12362C28.2044 9.70061 27.4791 10.5763 27.1023 11.5911L26.9281 12.1274H38.0696L37.8954 11.5911C37.5186 10.5763 36.7934 9.70061 35.8548 9.12362C34.8879 8.53305 33.7254 8.21741 32.4989 8.21741ZM45.152 20.5082C45.1845 20.8511 45.2856 20.936 45.6683 20.936H47.3254C47.4481 20.936 47.6142 20.9054 47.69 20.8409C47.7369 20.7662 47.7694 20.61 47.7405 20.5048V20.498L47.5348 18.4471V0.682065C47.5348 0.34931 47.4084 0.230469 47.0546 0.230469H45.3939C45.0401 0.230469 44.9138 0.34931 44.9138 0.682065V17.9921L45.152 20.5082Z" fill="white"/>
</svg>
